0
SECTION
2
HEADER
9
$INSUNITS
70
4
9
$ACADVER
1
AC1014
9
$HANDSEED
5
FFFF
0
ENDSEC
0
SECTION
2
TABLES
0
TABLE
2
VPORT
5
8
100
AcDbSymbolTable
0
ENDTAB
0
TABLE
2
LTYPE
5
5
100
AcDbSymbolTable
0
LTYPE
5
14
100
AcDbSymbolTableRecord
100
AcDbLinetypeTableRecord
2
BYBLOCK
70
0
0
LTYPE
5
15
100
AcDbSymbolTableRecord
100
AcDbLinetypeTableRecord
2
BYLAYER
70
0
0
LTYPE
5
16
100
AcDbSymbolTableRecord
100
AcDbLinetypeTableRecord
2
DASHED
70
0
3
Dashed __ __ __ __ __ __ __ __ __ __ __ __ __ _
72
65
73
2
40
0.75
49
0.5
74
0
49
-0.25
74
0
0
ENDTAB
0
TABLE
2
LAYER
5
2
100
AcDbSymbolTable
70
2
0
LAYER
5
50
100
AcDbSymbolTableRecord
100
AcDbLayerTableRecord
2
0
70
0
62
7
6
CONTINUOUS
0
ENDTAB
0
TABLE
2
STYLE
5
3
100
AcDbSymbolTable
70
1
0
STYLE
5
11
100
AcDbSymbolTableRecord
100
AcDbTextStyleTableRecord
2
STANDARD
70
0
0
ENDTAB
0
TABLE
2
VIEW
5
6
100
AcDbSymbolTable
70
0
0
ENDTAB
0
TABLE
2
UCS
5
7
100
AcDbSymbolTable
70
0
0
ENDTAB
0
TABLE
2
APPID
5
9
100
AcDbSymbolTable
70
2
0
APPID
5
12
100
AcDbSymbolTableRecord
100
AcDbRegAppTableRecord
2
ACAD
70
0
0
ENDTAB
0
TABLE
2
DIMSTYLE
5
A
100
AcDbSymbolTable
70
1
0
ENDTAB
0
TABLE
2
BLOCK_RECORD
5
1
100
AcDbSymbolTable
70
1
0
BLOCK_RECORD
5
1F
100
AcDbSymbolTableRecord
100
AcDbBlockTableRecord
2
*MODEL_SPACE
0
BLOCK_RECORD
5
1B
100
AcDbSymbolTableRecord
100
AcDbBlockTableRecord
2
*PAPER_SPACE
0
ENDTAB
0
ENDSEC
0
SECTION
2
BLOCKS
0
BLOCK
5
20
100
AcDbEntity
100
AcDbBlockBegin
2
*MODEL_SPACE
0
ENDBLK
5
21
100
AcDbEntity
100
AcDbBlockEnd
0
BLOCK
5
1C
100
AcDbEntity
100
AcDbBlockBegin
2
*PAPER_SPACE
0
ENDBLK
5
1D
100
AcDbEntity
100
AcDbBlockEnd
0
ENDSEC
0
SECTION
2
ENTITIES
0
LWPOLYLINE
5
100
100
AcDbEntity
8
0
100
AcDbPolyline
90
11
70
1
43
0.0
10
-154.51383702146359
20
75.992526371847006
10
-165.48403615067414
20
33.387334404912856
10
-118.01434401014875
20
33.387334404912856
10
-115.22200917835313
20
31.525777850382465
10
-104.67318870268082
20
31.525777850382465
10
-98.014544103783606
20
27.086681451117663
10
-98.014544103783606
20
8.3308311381445233
10
0
20
8.330831138144525
10
-25.576532136270149
20
40.103640681683714
10
-50.1918615047855
20
40.103640681683714
10
-58.839838521195318
20
75.992526371847035
0
CIRCLE
5
101
100
AcDbEntity
8
0
100
AcDbCircle
10
-121.75237477493937
20
-72.929304974836072
30
4.4408920985006262e-15
40
10.11008921439009
210
0
220
0
230
1
0
LWPOLYLINE
5
102
100
AcDbEntity
8
0
100
AcDbPolyline
90
4
70
1
43
0.0
10
-154.92555036155113
20
-129.68774173907303
10
-58.580282498511238
20
-129.68774173907303
10
-58.580282498511238
20
-10.786725546893372
10
-154.92555036155113
20
-10.786725546893372
0
LWPOLYLINE
5
103
100
AcDbEntity
8
0
100
AcDbPolyline
90
6
70
1
43
0.0
10
2.8026431249133825
20
-140.59662411339079
10
2.8026431249133781
20
0.90342996588795188
10
-21.039999575620548
20
-4.1458271975683836
10
-36.499454655227218
20
-9.1653265191434485
10
-36.233925333528184
20
-131.63880218834325
10
-21.692799791983241
20
-135.73127500875069
0
LWPOLYLINE
5
104
100
AcDbEntity
8
0
100
AcDbPolyline
90
4
70
1
43
0.0
10
12.353958626258796
20
-1.9000165909334044
10
12.353958626258796
20
-138.26248864409752
10
24.353958626258798
20
-138.26248864409752
10
24.353958626258798
20
-1.9000165909334044
0
LWPOLYLINE
5
105
100
AcDbEntity
8
0
100
AcDbPolyline
90
11
70
1
43
0.0
10
-154.51383702146359
20
-145.39391974540078
10
-165.48403615067414
20
-187.99911171233492
10
-118.01434401014875
20
-187.99911171233492
10
-115.22200917835313
20
-189.86066826686533
10
-104.67318870268082
20
-189.86066826686533
10
-98.014544103783606
20
-194.29976466613013
10
-98.014544103783606
20
-213.05561497910327
10
0
20
-213.05561497910327
10
-25.576532136270149
20
-181.28280543556406
10
-50.1918615047855
20
-181.28280543556406
10
-58.839838521195311
20
-145.39391974540075
0
ENDSEC
0
SECTION
2
OBJECTS
0
DICTIONARY
5
C
100
AcDbDictionary
3
ACAD_GROUP
350
D
3
ACAD_MLINESTYLE
350
17
0
DICTIONARY
5
D
100
AcDbDictionary
0
DICTIONARY
5
1A
330
C
100
AcDbDictionary
0
DICTIONARY
5
17
100
AcDbDictionary
0
ENDSEC
0
EOF
